<svg xmlns="http://www.w3.org/2000/svg" width="1200" height="800" viewBox="0 0 1200 800">
    
    
    <g transform="translate(600.0,220)">
      <rect x="-7" y="88" width="14" height="125" rx="7" fill="#4B6642" />
      <path d="M -120 115 C -78 72, -22 72, -8 130 C -58 154, -95 146, -120 115 Z" fill="#4B6642" /><path d="M 120 115 C 78 72, 22 72, 8 130 C 58 154, 95 146, 120 115 Z" fill="#4B6642" />
      <ellipse cx="0" cy="-170" rx="38" ry="54" fill="#214D8C" stroke="white" stroke-width="5"/><ellipse cx="0" cy="-120" rx="48" ry="64" fill="#214D8C" stroke="white" stroke-width="5"/><ellipse cx="-32" cy="-78" rx="42" ry="56" fill="#214D8C" stroke="white" stroke-width="5"/><ellipse cx="32" cy="-78" rx="42" ry="56" fill="#214D8C" stroke="white" stroke-width="5"/><ellipse cx="0" cy="-44" rx="54" ry="74" fill="#214D8C" stroke="white" stroke-width="5"/><ellipse cx="-48" cy="10" rx="50" ry="70" fill="#214D8C" stroke="white" stroke-width="5"/><ellipse cx="48" cy="10" rx="50" ry="70" fill="#214D8C" stroke="white" stroke-width="5"/><ellipse cx="0" cy="52" rx="60" ry="82" fill="#0A2A43" stroke="white" stroke-width="5"/>
    </g>
    
    
            <g transform="translate(600.0,540)" text-anchor="middle" fill="#0A2A43">
              <text y="0" font-family="Georgia, Times New Roman, serif" font-size="72" font-weight="700" letter-spacing="8">BLUEBONNET</text>
              <line x1="-175" y1="38" x2="-45" y2="38" stroke="#0A2A43" stroke-width="2" opacity="0.45"/>
              <line x1="45" y1="38" x2="175" y2="38" stroke="#0A2A43" stroke-width="2" opacity="0.45"/>
              <text y="58" font-family="Georgia, Times New Roman, serif" font-size="38" font-weight="700" letter-spacing="6">LEGACY</text>
            </g>
            
    </svg>